<?xml version="1.0" encoding="UTF-8" standalone="no"?>
<svg
   xmlns:dc="http://purl.org/dc/elements/1.1/"
   xmlns:cc="http://creativecommons.org/ns#"
   xmlns:rdf="http://www.w3.org/1999/02/22-rdf-syntax-ns#"
   xmlns:svg="http://www.w3.org/2000/svg"
   xmlns="http://www.w3.org/2000/svg"
   xmlns:xlink="http://www.w3.org/1999/xlink"
   xmlns:sodipodi="http://sodipodi.sourceforge.net/DTD/sodipodi-0.dtd"
   xmlns:inkscape="http://www.inkscape.org/namespaces/inkscape"
   sodipodi:docname="coffee-icon.svg"
   inkscape:version="1.0 (4035a4fb49, 2020-05-01)"
   id="svg8"
   version="1.1"
   viewBox="0 0 13.229166 13.229167"
   height="50"
   width="50">
  <defs
     id="defs2">
    <linearGradient
       id="linearGradient1553"
       inkscape:collect="always">
      <stop
         id="stop1549"
         offset="0"
         style="stop-color:#331a00;stop-opacity:1" />
      <stop
         id="stop1551"
         offset="1"
         style="stop-color:#ff0000;stop-opacity:0;" />
    </linearGradient>
    <clipPath
       id="clipPath1318"
       clipPathUnits="userSpaceOnUse">
      <path
         d="m 1.4810465,3.5145141 v 7.7044389 h 0.4588867 c -3.757e-4,-0.0053 -0.00274,-0.01014 -0.00259,-0.0155 0.00278,-0.08765 0.046836,-0.131764 0.090434,-0.131775 0.037907,-9e-6 0.073569,0.03551 0.082682,0.101803 0.020225,0.01592 0.023931,0.02356 0.032556,0.04547 h 0.01757 v -0.28577 c -0.00864,-0.006 -0.01408,-0.02097 -0.011886,-0.05788 0.00186,-0.03116 -3.466e-4,-0.06291 0.00568,-0.09353 2.804e-4,-0.0014 0.00479,-0.0072 0.0062,-0.0098 V 3.5145141 Z"
         style="fill:#ff0000;fill-opacity:1;fill-rule:nonzero;stroke:none;stroke-width:0.264583"
         id="path1320" />
    </clipPath>
    <clipPath
       id="clipPath1374"
       clipPathUnits="userSpaceOnUse">
      <path
         d="m 7.8594686,3.4044435 v 6.7520425 c 0.047374,0.02675 0.082524,0.09251 0.06873,0.195337 -0.00101,0.0075 -0.00233,0.01524 -0.0031,0.02274 -3.704e-4,0.0038 -8.202e-4,0.0076 -0.00103,0.01137 0,0 0,5.3e-4 0,5.3e-4 -1.145e-4,-1.92e-4 6.06e-5,0.001 0,0.001 0.00119,0.0037 0.00124,0.008 0.00156,0.01188 5.82e-4,0.0077 6.35e-4,0.01545 0.00103,0.02326 2.241e-4,0.02365 -3.175e-4,0.0472 -5.291e-4,0.0708 0.00603,0.02333 0.010057,0.04928 0.00827,0.08061 -0.00251,0.04404 0.00629,0.09028 -0.00723,0.133326 -0.00611,0.01942 -0.016526,0.03722 -0.024805,0.05581 -0.010612,0.02465 -0.023408,0.04817 -0.037724,0.0708 -0.00193,0.003 -0.0033,0.003 -0.00517,0.0057 v 0.5302 c 0.016097,-0.0085 0.033703,-0.01376 0.050643,-0.02067 0.040568,-0.01664 0.06623,-0.02431 0.081132,-0.02377 0.037913,0.0014 0.00299,0.06386 -0.03669,0.155029 0.00439,7.94e-4 0.00827,0.0051 0.00878,0.01344 -0.0069,-0.0127 -0.00442,-0.02317 0.00156,-0.02739 0.0055,-0.0039 0.013785,-4.24e-4 0.020672,0.0098 -2.064e-4,-0.0025 -9.525e-4,-0.0049 -5.292e-4,-0.0072 0.004,-0.02102 0.026056,-0.03856 0.043408,-0.04806 0.00727,-0.004 0.015068,-0.0067 0.022738,-0.0098 2.265e-4,-3.7e-5 0.00164,9.1e-5 0.00206,0 0.00108,-0.0019 -0.00124,-0.0028 5.292e-4,-0.0047 8.467e-4,-10e-4 0.00172,-0.0022 0.00259,-0.0031 5.821e-4,-5.03e-4 0.00661,-0.006 0.00775,-0.0062 5.821e-4,-10e-5 -9.525e-4,0.0025 -5.291e-4,0.0021 9.525e-4,-7.94e-4 0.00143,-0.002 0.00206,-0.0031 0.0043,-0.0072 0.00521,-0.0098 0.00723,-0.01344 0.00153,-0.0081 0.00347,-0.01607 0.00465,-0.0248 7.937e-4,-0.0058 0.00138,-0.01125 0.00156,-0.01705 2.646e-4,-0.0089 -0.00148,-0.01776 -0.0031,-0.02636 v -5.29e-4 c -0.00497,-0.02645 0.017957,-0.03112 0.025839,-0.0093 0.00434,-0.0058 0.00973,-0.01129 0.013436,-0.01757 0.00114,9.79e-4 0.00198,0.0021 0.0031,0.0031 3.439e-4,-0.0015 8.202e-4,-0.0035 0.00103,-0.0041 3.968e-4,-0.0011 0.00103,-0.0021 0.00156,-0.0031 v -5.3e-4 c 2.646e-4,-0.0012 3.704e-4,-0.0031 0.00156,-0.0031 h 5.292e-4 c 1.757e-4,-3.18e-4 1.241e-4,-7.15e-4 5.292e-4,-10e-4 -0.01714,-0.02109 -0.026247,-0.04104 -0.031006,-0.05995 -0.00387,0.0022 -0.00669,0.0051 -0.012404,0.0062 -0.00844,0.0016 -0.016068,-0.0047 -0.024289,-0.0072 -0.0035,-0.0028 -0.00773,-0.0051 -0.010853,-0.0083 -0.00987,-0.01009 -0.019185,-0.02218 -0.021704,-0.03669 -2.362e-4,-0.0014 1.816e-4,-0.0027 0,-0.0041 -0.00209,-0.0036 -0.00914,-0.01612 -0.0093,-0.02222 v -5.29e-4 c -7.408e-4,-5.82e-4 -8.202e-4,-0.0025 -0.00156,-0.0031 -0.012544,-0.0045 -0.023852,-0.01689 -0.02377,-0.04237 2.33e-5,-0.0075 -2.75e-5,-0.01524 0,-0.02274 4.02e-5,-0.0022 -4.21e-5,-0.0045 0,-0.0067 -0.00749,-0.0084 -0.012377,-0.02049 -0.00775,-0.03979 1.352e-4,0.0078 0.0022,0.01012 0.00723,0.01188 -2.193e-4,-0.0026 -7.144e-4,-0.0051 -5.292e-4,-0.0078 1.18e-4,-0.0015 0.00114,-0.0023 0.00156,-0.0036 -0.00278,-0.0026 -0.00646,-0.0042 -0.00878,-0.0072 -0.00257,-0.0033 0.010515,-0.02124 0.011885,-0.02325 0.00108,-0.0012 0.00212,-0.0024 0.0031,-0.0036 3.969e-4,-0.0021 3.704e-4,-0.0044 0.00103,-0.0067 3.439e-4,-0.0012 9.789e-4,-0.002 0.00103,-0.0036 2.91e-4,-10e-4 -3.969e-4,-0.0021 0,-0.0031 7.673e-4,-0.0017 0.00143,-0.0026 0.00259,-0.0052 0.00185,-0.004 0.00373,-0.0079 0.00414,-0.0083 1.617e-4,-5.03e-4 3.969e-4,-7.41e-4 5.292e-4,-0.0016 1.241e-4,-3.44e-4 -1.09e-4,-8.74e-4 0,-10e-4 0.00122,-0.0084 0.00103,-0.01658 0.00672,-0.02584 5.556e-4,-8.99e-4 0.00222,-0.0016 0.0031,-0.0026 0.00175,-0.0046 0.00333,-0.0093 0.00517,-0.01395 0.011303,-0.02887 0.03365,-0.036 0.049093,-0.02894 0.010366,0.0048 0.014544,0.01723 0.013436,0.03204 0.0051,0.01105 0.00212,0.02631 -0.011885,0.04186 -0.00204,0.0076 -0.00436,0.01516 -0.00775,0.02222 -3.44e-4,7.15e-4 -7.144e-4,0.0014 -0.00103,0.0021 5.292e-4,0.0048 0.0019,0.0063 0.00206,0.01344 6.61e-5,0.0031 -0.00235,0.0056 -0.00413,0.0083 4.762e-4,0.0037 6.879e-4,0.0056 0.00103,0.01189 -1.784e-4,0.0021 9.65e-5,0.0041 0,0.0062 0.00289,-0.0032 0.00411,-0.008 0.00775,-0.01034 0.00507,-0.0032 0.011152,0.0022 0.017052,0.0052 8.732e-4,-0.0032 0.00156,-0.0056 0.00259,-0.0093 0.00831,-0.02987 0.026763,-0.03907 0.041341,-0.03359 0.014579,0.0055 0.025535,0.02584 0.017571,0.05581 -0.0018,0.0067 -0.00382,0.01346 -0.00568,0.02015 -0.00257,0.0092 -0.00504,0.01871 -0.00775,0.02791 -0.00191,0.0064 -0.00444,0.01262 -0.0062,0.01912 -2.326e-4,8.46e-4 -3.969e-4,0.0012 -5.292e-4,0.0026 8.732e-4,0.0032 0.00484,0.0063 0.00517,0.01447 1.37e-5,3.43e-4 -1.25e-5,8.73e-4 0,10e-4 0.00538,-0.0024 0.00947,-0.0067 0.015502,-0.0078 0.033903,-0.0057 0.076577,0.01121 0.1121378,0.06201 0.040018,0.05717 0.082031,0.127062 0.074931,0.201021 -3.68e-5,3.7e-4 -4.762e-4,10e-4 -5.292e-4,10e-4 0.00996,0.03799 0.013518,0.05556 0.039274,0.132292 0.00569,0.01695 0.00765,0.03211 0.00878,0.04651 H 9.0118933 V 3.4044435 Z m 0.064596,6.9830365 c -1.027e-4,0.0021 -4.498e-4,0.0041 -5.292e-4,0.0062 -3.7e-5,10e-4 5.027e-4,0.0036 5.292e-4,0.0026 6.06e-5,-0.003 -5.027e-4,-0.0085 0,-0.0088 z m 0.1948201,0.08527 c 0.062847,-0.02266 0.073992,0.271584 0.1157552,0.132291 0.00268,-0.01204 -0.01339,0.02832 -0.011369,0.02067 0.00262,-0.0099 0.00395,-0.02024 0.0093,-0.02894 0.00148,-0.0024 0.0018,0.004 0.00206,0.0083 6.98e-5,0.0011 3.968e-4,0.0014 5.291e-4,0.0021 5.821e-4,0.0038 0.00318,0.02754 0.00414,0.03514 0.00537,0.05406 -0.022984,0.102411 -0.05271,0.145211 -0.1000572,0.144056 -0.2524839,0.03513 -0.1441772,-0.102836 0.00335,-0.0043 0.015462,-0.02672 0.018603,-0.02842 0.00177,-9e-4 6.615e-4,0.0039 0.00156,0.0057 3.175e-4,6.09e-4 3.704e-4,-0.0013 5.291e-4,-0.0021 -0.00127,-0.0098 -0.00246,-0.01966 -0.00362,-0.02946 -0.00132,-0.01128 -0.00438,-0.02226 -0.00362,-0.03359 0.00284,-0.04236 0.012269,-0.0588 0.032556,-0.09198 0.011438,-0.01871 0.021439,-0.02877 0.030489,-0.03204 z m -0.1550294,1.022676 v 0.0093 c 8.731e-4,-6.62e-4 0.00169,-0.0014 0.00259,-0.0021 -2.035e-4,-0.0022 -0.00106,-0.0044 -0.00259,-0.0072 z m 0.114205,0.02894 c -0.00649,0.0078 -0.010356,0.01337 -0.019637,0.01912 -0.00447,0.0027 -0.00965,0.0041 -0.01447,0.0062 -0.00758,0.0033 -0.015327,0.0062 -0.022738,0.0098 -0.00706,0.0034 -0.00277,0.0011 -0.00672,0.0031 h 0.066146 c -0.00287,-0.01296 -0.00198,-0.02557 -0.00259,-0.03824 z m -0.175183,0.03359 c -7.408e-4,6.35e-4 -0.00132,0.0015 -0.00206,0.0021 -5.556e-4,4.5e-4 -0.00249,0.0021 -0.0031,0.0026 h 0.00568 c -5.93e-5,-0.0016 -3.44e-4,-0.003 -5.292e-4,-0.0047 z"
         style="fill:#ff0000;fill-opacity:1;fill-rule:nonzero;stroke:none;stroke-width:0.264583"
         id="path1376" />
    </clipPath>
    <clipPath
       id="clipPath1384"
       clipPathUnits="userSpaceOnUse">
      <path
         d="m 1.9797145,10.498485 v 0.875398 c 0.028245,0.01171 0.053281,0.03873 0.060462,0.09095 0.028602,0.02251 0.016376,0.01019 0.045992,0.07855 0.00212,0.0049 -0.00208,-0.01082 -0.00103,-0.01602 0,-5e-5 0.00197,0.0048 0.00568,0.01292 0.058179,0.127887 -0.035425,0.197574 -0.1111044,0.138493 v 0.373104 h 6.197039 v -0.339514 c -0.022791,0.0097 -0.03481,0.0023 -0.041341,-0.0155 -0.0055,-0.002 -0.00705,-0.0013 -0.01292,-0.0036 -0.00308,-0.0012 -0.037101,-0.113284 -0.041341,-0.127124 -0.00339,-0.01427 -0.00251,-0.02795 -0.0031,-0.04186 -0.00649,0.0078 -0.010356,0.01337 -0.019637,0.01912 -0.00447,0.0027 -0.00965,0.0041 -0.01447,0.0062 -0.00758,0.0033 -0.015327,0.0062 -0.022738,0.0098 -0.052463,0.02562 -0.00633,0.0066 -0.049609,0.02377 -0.00323,0.0012 -0.00183,-1.02e-4 -0.00414,0.0016 -6.879e-4,5.03e-4 -0.00116,4.3e-5 -0.00206,0.0016 -0.00588,0.0044 -0.013346,0.0067 -0.020672,0.0052 -0.00625,-0.0012 -0.0076,-0.0044 -0.00723,-0.0088 -3.175e-4,0.0044 -0.00138,0.009 -0.00206,0.01344 -0.00161,0.0042 -0.00334,0.0083 -0.00517,0.0124 -0.00351,0.0079 -0.0089,0.0088 -0.013436,0.0083 -3.704e-4,0.0011 -0.00156,2.41e-4 -0.00206,0.0016 0.00124,-5.3e-5 0.00507,-0.0016 0.0062,-0.0016 0.044707,0.0016 -0.00832,0.07628 -0.05581,0.198954 -8.202e-4,0.0021 -0.00101,0.0046 -0.00259,0.0062 -0.010134,0.01037 -0.020907,0.02016 -0.03204,0.02946 -0.01923,0.01604 -0.08411,0.06683 -0.1100709,0.08733 -0.1376598,0.108687 -0.2472227,-0.03033 -0.1095539,-0.13901 0.035884,-0.02832 0.071053,-0.05749 0.1069703,-0.08578 0.021603,-0.01702 0.042107,-0.03589 0.065629,-0.05013 0.017449,-0.01057 0.037454,-0.01557 0.056327,-0.02325 0.032802,-0.01346 0.050126,-0.01699 0.065629,-0.01912 -0.0022,-0.0015 -0.00456,-0.0024 -0.00568,-0.0078 -0.00198,-0.0095 -0.00466,-0.01694 5.292e-4,-0.02635 0.00275,-0.0044 0.00436,-0.0094 0.00672,-0.01395 -0.00101,-0.0023 -0.00359,-0.0017 -0.00362,-0.0052 -3.07e-5,-0.004 3.94e-5,-0.0079 -5.292e-4,-0.01189 -1.815e-4,-0.002 -0.00167,-0.0041 -5.292e-4,-0.0057 0.00331,-0.0045 0.00865,-0.0078 0.01292,-0.01137 -0.00279,2.91e-4 -0.0044,-2.6e-4 -0.0062,0.0026 -4.498e-4,6.08e-4 0.00148,-2.15e-4 0.00206,-0.0016 0.00472,-0.0043 0.00359,-0.01022 0.00414,-0.01602 8.467e-4,-0.0095 0.0051,-0.01461 0.0093,-0.01654 6.78e-5,-9.53e-4 -1.598e-4,-0.002 0,-0.0036 6.28e-5,-6.88e-4 5.72e-5,-0.0024 0,-0.0031 -1.299e-4,-0.0018 -0.00151,-0.01058 -0.00156,-0.01085 -0.00146,-0.01021 0.00305,-0.01619 0.00827,-0.01705 0.00522,-8.73e-4 0.011226,0.0032 0.012401,0.01344 2.148e-4,0.0019 -2.54e-5,0.0038 5.291e-4,0.0057 0.00138,-0.0073 0.00491,-0.01292 0.0093,-0.01292 0.0049,0 0.00924,0.0054 0.00982,0.01447 -0.0069,-0.01269 -0.00447,-0.02317 0.00156,-0.02739 0.0055,-0.0039 0.013785,-2.91e-4 0.020672,0.0098 -2.064e-4,-0.0025 -9.525e-4,-0.0049 -5.292e-4,-0.0072 0.004,-0.02102 0.026056,-0.03856 0.043408,-0.04806 0.00727,-0.004 0.015068,-0.0067 0.022738,-0.0098 2.259e-4,-3.8e-5 0.00164,9.1e-5 0.00206,0 0.00108,-0.0019 -0.00124,-0.0028 5.292e-4,-0.0047 8.466e-4,-10e-4 0.00172,-0.0022 0.00259,-0.0031 5.821e-4,-5.03e-4 0.00661,-0.006 0.00775,-0.0062 5.821e-4,-10e-5 -9.525e-4,0.0025 -5.292e-4,0.0021 9.525e-4,-7.94e-4 0.00143,-0.002 0.00206,-0.0031 0.0043,-0.0072 0.00521,-0.0098 0.00723,-0.01344 0.00153,-0.0081 0.00347,-0.01608 0.00465,-0.0248 7.937e-4,-0.0058 0.00138,-0.01125 0.00156,-0.01705 2.646e-4,-0.0089 -0.00148,-0.01776 -0.0031,-0.02636 v -5.29e-4 c -0.00497,-0.02645 0.017957,-0.03112 0.025839,-0.0093 0.00434,-0.0058 0.00973,-0.01129 0.013435,-0.01757 0.00114,9.79e-4 0.00198,0.0021 0.0031,0.0031 3.44e-4,-0.0015 8.203e-4,-0.0035 0.00103,-0.0041 3.969e-4,-0.0011 0.00103,-0.0021 0.00156,-0.0031 v -5.29e-4 c 2.645e-4,-0.0012 3.704e-4,-0.0031 0.00156,-0.0031 h 5.292e-4 l 5.291e-4,-5.29e-4 c -0.017153,-0.02111 -0.026252,-0.04102 -0.031006,-0.05994 -0.00387,0.0022 -0.00669,0.0051 -0.012401,0.0062 -0.00844,0.0016 -0.016068,-0.0047 -0.024289,-0.0072 -0.0035,-0.0028 -0.00773,-0.0051 -0.010853,-0.0083 -0.00987,-0.01009 -0.019185,-0.02218 -0.021704,-0.03669 -2.363e-4,-0.0014 1.815e-4,-0.0027 0,-0.0041 -0.00209,-0.0036 -0.00914,-0.01612 -0.0093,-0.02222 V 11.1461 c -2.471e-4,-1.95e-4 -3.704e-4,-8.21e-4 -5.291e-4,-0.001 -0.068296,0.0024 -0.1145149,-0.07577 -0.041341,-0.168982 0.00335,-0.0043 0.015462,-0.02672 0.018603,-0.02842 0.00177,-9e-4 6.614e-4,0.0039 0.00156,0.0057 3.175e-4,6.09e-4 3.704e-4,-0.0013 5.292e-4,-0.0021 -0.00127,-0.0098 -0.00246,-0.01967 -0.00362,-0.02945 -0.00132,-0.01128 -0.00438,-0.02226 -0.00362,-0.03359 0.00284,-0.04236 0.012269,-0.0588 0.032556,-0.09198 0.011438,-0.01871 0.021439,-0.02877 0.030489,-0.03204 0.062847,-0.02266 0.073992,0.271587 0.1157552,0.132291 0.00268,-0.01204 -0.013391,0.02832 -0.011369,0.02067 0.00262,-0.0099 0.00395,-0.02024 0.0093,-0.02894 0.00148,-0.0024 0.0018,0.004 0.00206,0.0083 6.99e-5,0.0011 3.969e-4,0.0014 5.292e-4,0.0021 5.821e-4,0.0038 0.00318,0.02754 0.00414,0.03514 0.00329,0.03315 -0.00761,0.06361 -0.02222,0.0925 3e-7,0.0059 0.00185,0.01009 0,0.01705 -0.0018,0.0067 -0.00382,0.01345 -0.00568,0.02015 -0.00257,0.0092 -0.00504,0.01871 -0.00775,0.02791 -0.00191,0.0064 -0.00444,0.01262 -0.0062,0.01912 -2.325e-4,8.46e-4 -3.968e-4,0.0012 -5.291e-4,0.0026 8.731e-4,0.0032 0.00484,0.0063 0.00517,0.01447 1.38e-5,3.43e-4 -1.24e-5,10e-4 0,10e-4 0.00535,-0.0024 0.0095,-0.0072 0.015502,-0.0083 0.00903,-0.0015 0.019484,0.0038 0.029456,0.0057 V 10.49898 H 7.838836 c 0.018259,0.0352 0.027263,0.08347 0.019121,0.144178 -0.00101,0.0075 -0.00233,0.01524 -0.0031,0.02274 -3.705e-4,0.0038 -8.203e-4,0.0076 -0.00103,0.01137 0,0 0,5.29e-4 0,5.29e-4 -1.146e-4,-1.91e-4 6.06e-5,10e-4 0,10e-4 0.00119,0.0037 0.00124,0.008 0.00156,0.01188 5.821e-4,0.0077 6.35e-4,0.01545 0.00103,0.02325 2.127e-4,0.02244 -2.91e-4,0.04479 -5.292e-4,0.06718 0.00657,0.02406 0.010131,0.0516 0.00827,0.08423 -0.00251,0.04404 0.00629,0.09028 -0.00723,0.133325 -0.00611,0.01942 -0.016526,0.03722 -0.024805,0.05581 -0.010612,0.02465 -0.023408,0.04817 -0.037724,0.0708 -0.077955,0.123241 -0.1105987,-0.02415 -0.1395261,-0.120923 -0.020751,-0.01764 -0.029513,-0.04293 -0.037207,-0.06925 -0.00138,1.47e-4 -0.0027,-0.0024 -0.00414,-0.0016 v 0.0026 c 0,0.0056 7.937e-4,0.01103 0,0.01654 -3.969e-4,0.0028 -8.202e-4,-0.0055 -0.00103,-0.0083 -2.257e-4,-0.003 -8e-7,-0.0059 0,-0.0088 -0.00635,0.0043 -0.013531,0.02011 -0.021188,0.04031 0.012475,0.0012 0.025045,0.0019 0.037207,0.0052 0.01233,0.0033 -0.020593,-0.0012 -0.038241,-0.0031 0,0 -5.291e-4,0 -5.291e-4,0 -0.00212,-2.26e-4 -0.0031,-3.97e-4 -0.00465,-5.29e-4 -0.055403,-0.0046 -0.065351,-0.01365 -0.055811,-0.02532 -0.015571,-0.01107 -0.030162,-0.02375 -0.045475,-0.03566 -0.0029,-0.0065 -0.00592,-0.01309 -0.00878,-0.01964 0.00177,0.0026 0.00654,0.0069 0.00568,0.0047 -0.00246,-0.0066 -0.00465,-0.0063 -0.00672,-0.0072 2.91e-4,6.35e-4 2.325e-4,0.0014 5.291e-4,0.0021 -3.439e-4,-6.88e-4 -6.35e-4,-0.0013 -0.00103,-0.0021 -0.00608,-0.0016 -0.012335,-0.0036 -0.017052,-0.0036 -0.2334128,-8.47e-4 -0.059577,-3.44e-4 -0.3369305,-0.0016 -0.2006251,-7.67e-4 -0.1666224,0.02048 -0.1266074,-0.0057 l -0.031522,0.0093 c -0.016785,7.93e-4 -0.033355,0.0037 -0.050126,0.0026 -0.034061,-0.0022 -0.068331,-0.01808 -0.099736,-0.02997 -0.016304,-0.0062 -0.0324,-0.01211 -0.048576,-0.0186 -0.010443,-0.0042 -0.020693,-0.0089 -0.031006,-0.01343 -0.060943,-0.02347 -0.1164656,-0.05469 -0.168982,-0.09405 -0.0022,-0.0016 -0.0038,-0.0037 -0.00568,-0.0057 -0.045844,0.0013 -0.091866,-0.0031 -0.1359091,-0.01705 v 5.29e-4 c -0.00819,-0.0026 -0.01375,-0.0063 -0.021188,-0.0093 -0.00259,0.0022 -0.00451,0.0052 -0.00723,0.0072 -0.019333,0.01476 -0.041032,0.02613 -0.061495,0.03927 -0.016097,0.0036 -0.032335,0.0081 -0.048576,0.01085 -0.00523,8.99e-4 -0.010708,4.23e-4 -0.01602,5.29e-4 -0.032088,5.03e-4 -0.06358,-0.0025 -0.095601,-0.0041 -0.01106,-5.3e-4 -0.018087,-0.0012 -0.023254,-0.0026 -0.045469,0.0191 -0.079783,0.02309 -0.1302245,0.01757 -0.00637,-6.09e-4 -0.014941,0.0032 -0.019121,-0.0016 -0.0029,-0.0033 0.00676,-0.0056 0.00982,-0.0088 0.00736,-0.0077 0.022955,-0.0132 0.021704,-0.02377 -2.326e-4,-0.002 -3.44e-4,-0.0056 -5.292e-4,-0.0078 -0.032385,0.01398 -0.07726,0.02757 -0.1364261,0.04134 -0.0031,0.0066 -0.00422,0.01484 -0.00827,0.02067 -0.00851,0.01225 -0.026793,-0.0054 -0.041858,-0.01343 -0.00212,-7.94e-4 -0.00391,-0.0018 -0.00568,-0.0031 h -5.292e-4 c -0.1290682,-0.04086 -0.1420172,-0.04434 -0.1364258,-0.04237 -0.028302,0.0058 -0.057904,0.007 -0.086816,0.0062 -0.048578,-0.0014 -0.074232,-0.0046 -0.1250569,-0.0093 -0.088727,-0.01605 -0.078145,-0.0094 -0.1627809,-0.04392 -0.014843,-0.0061 -0.029133,-0.01299 -0.042891,-0.02119 -0.00671,-0.004 -0.013078,-0.0089 -0.019121,-0.01395 -0.00206,-2.6e-5 -0.00413,2.8e-5 -0.0062,0 0.00285,0.0028 0.00709,0.0059 0.00465,0.0057 -0.00702,-6.35e-4 -0.013343,-0.0044 -0.020153,-0.0062 -0.037766,-5.82e-4 -0.075422,-4.77e-4 -0.1131713,-0.0016 -0.017343,0.002 -0.034311,0.0076 -0.051677,0.0093 -0.024096,0.0025 -0.1079283,-0.0062 -0.113688,-0.0067 -0.114418,-0.01116 -0.1126133,-0.01177 -0.2160077,-0.02532 -0.020119,-7.8e-5 -0.059893,-8.2e-4 -0.084749,0 -0.031569,10e-4 -0.062955,0.0049 -0.094568,0.0041 -0.010366,-2.91e-4 -0.020664,-0.0018 -0.031006,-0.0026 -0.095678,-0.0086 -0.04276,-0.0039 -0.1581298,-0.01292 -0.022032,-0.0019 -0.044084,-0.0051 -0.066146,-0.0067 -0.00452,-3.97e-4 -0.0092,-4.23e-4 -0.013435,10e-4 -0.0486,0.01806 -0.093201,0.04685 -0.1436605,0.06046 -0.075307,0.01893 -0.049319,0.01449 -0.1209228,0.0248 -0.014131,0.002 -0.03147,0.01478 -0.042375,0.0057 -0.00138,-0.0012 0.00362,-0.003 0.00465,-0.0047 -0.016084,0.0099 -0.028754,0.01791 -0.055294,0.03049 -0.046992,0.01814 -0.071364,0.03149 -0.1229897,0.03669 -0.035215,0.0036 -0.069653,-0.0081 -0.1043864,-0.01033 -0.050034,-0.0019 -0.056018,-0.0041 -0.1080039,0.0016 -0.013544,0.0014 -0.027439,0.0022 -0.040307,0.0067 -0.017198,0.006 -0.031919,0.01699 -0.048576,0.02429 -0.04361,0.01919 -0.045546,0.03027 -0.044442,0.01602 -0.0085,0.0095 -0.016735,0.01904 -0.026355,0.02739 -0.030976,0.0269 -0.054263,0.03989 -0.091984,0.05478 -0.012075,0.0048 -0.024786,0.0076 -0.037207,0.01137 -0.040314,0.0081 -0.059758,0.0149 -0.1038699,0.0088 -0.038342,-0.0054 -0.073828,-0.01925 -0.1069702,-0.03772 -0.00385,0.0029 -0.00759,0.0058 -0.011369,0.0088 -0.039992,0.03128 -0.06233,0.05164 -0.1100709,0.07648 -0.027955,0.01454 -0.055839,0.03141 -0.086816,0.03721 -0.015121,0.0028 -0.030565,3.18e-4 -0.045992,-5.29e-4 -0.034157,0.161526 -0.1772049,0.173955 -0.2253093,0.05478 -0.022037,0.01677 -0.041813,0.03955 -0.06873,0.04341 -0.043343,0.0061 -0.089195,-0.0041 -0.1297078,-0.02067 -0.013602,-0.0056 -0.023561,-0.0167 -0.032556,-0.02894 -1.879e-4,0.0039 7.779e-4,0.008 0,0.01188 -0.00595,0.02964 -0.026995,0.06267 -0.049093,0.08371 -0.00906,0.0086 -0.021129,0.01392 -0.030489,0.02222 -0.00499,0.0044 0.010423,-0.01109 0.017053,-0.01033 0.00489,5.3e-4 -0.00622,0.0076 -0.0093,0.01137 -0.0032,0.0057 -0.00906,0.01262 -0.013952,0.02067 0.00537,-0.02944 0.00445,-0.05957 0.00672,-0.0894 0.018824,-0.24733 -0.2534661,0.323587 -0.2387451,0.07597 0.00186,-0.03116 -3.307e-4,-0.06292 0.00568,-0.09354 0.00206,-0.01045 0.039092,-0.05942 0.045992,-0.07183 0.010868,-0.01321 0.017396,-0.0172 0.019637,-0.01964 0.00139,-0.01442 0.00357,-0.02868 0.00879,-0.04651 0.0025,-0.0085 0.00646,-0.01689 0.011369,-0.02429 0.00199,-0.003 -0.00301,0.0074 -0.00207,0.01085 6.8e-4,0.0025 0.00157,-0.0048 0.00258,-0.0072 0.00476,-0.03109 0.00537,-0.03899 0.020154,-0.077 5.027e-4,-0.0013 0.00133,-0.0018 0.00207,-0.0036 0.00102,-0.03227 0.00515,-0.06512 0,-0.09715 -0.019696,-0.12245 0.025368,-0.197302 0.083199,-0.211874 0.03556,-0.009 0.075283,0.0081 0.1085206,0.04806 0.063545,-0.02515 0.1452573,0.02128 0.1674316,0.148312 0.026231,-0.0127 0.066498,-0.01944 0.1498615,-0.02946 0.015888,-0.0019 0.031758,0.0027 0.047026,0.0088 0.011546,-0.01006 0.022905,-0.02046 0.038757,-0.03411 0.029425,-0.02107 0.057497,-0.04466 0.088367,-0.06356 0.012263,-0.0075 0.045457,-0.0171 0.062528,-0.0217 0.018632,-0.005 0.036732,-0.01167 0.05581,-0.01447 0.018902,-0.0028 0.029003,-0.002 0.040824,-0.0021 0.019201,-0.02293 0.040803,-0.04517 0.062012,-0.06615 z m 5.4937217,0.395841 h 5.291e-4 c -1.545e-4,-3.44e-4 -3.704e-4,-7.41e-4 -5.291e-4,-10e-4 1.709e-4,3.44e-4 -1.646e-4,7.41e-4 0,10e-4 z m 0.05581,0.05788 c 0.012681,0.009 0.025985,0.01694 0.041858,0.02067 0.00666,0.0016 0.013383,0.0024 0.020153,0.0031 0.00967,-0.01781 0.037084,-0.07689 0.021188,-0.04134 7.7e-6,3.44e-4 5e-7,7.15e-4 0,0.001 3.175e-4,-2.17e-4 7.144e-4,-0.0019 0.00103,-0.0021 v -0.0155 c -6.615e-4,-0.0037 -0.00217,-0.0071 -0.00259,-0.01085 -0.037644,0.01731 -0.072021,0.03318 -0.081649,0.04496 z m 0.3245281,-0.273368 c -1.027e-4,0.0021 -4.498e-4,0.0041 -5.292e-4,0.0062 -3.7e-5,10e-4 5.027e-4,0.0036 5.292e-4,0.0026 6.06e-5,-0.003 -5.027e-4,-0.0085 0,-0.0088 z m -4.617806,-0.180351 c 1.453e-4,0.0015 -1.201e-4,0.0041 0,0.0057 0.00577,-0.0016 0.011427,-0.0036 0.017052,-0.0057 z m 3.3987589,5.29e-4 c 0.013391,0.0035 0.026823,0.0068 0.040308,0.01033 0.031647,0.02872 0.067578,0.05116 0.1049031,0.07131 0.012737,0.0069 0.02444,0.01285 0.038241,0.01705 0.038415,0.01521 0.077043,0.03144 0.1162719,0.04496 0.015306,-0.0021 0.030575,-0.0042 0.045992,-0.0047 0.046614,-0.0014 0.093407,3.44e-4 0.1400429,5.29e-4 0.236493,9.26e-4 0.1396238,7.41e-4 0.3291789,0.0016 v -5.29e-4 c -3.38e-5,-0.0024 0.0041,-2.65e-4 0.00723,5.29e-4 4.498e-4,1.11e-4 5.821e-4,-1.17e-4 0.00103,0 0.015274,-4.5e-4 0.042654,-0.01471 0.044442,0 1.035e-4,8.47e-4 -9.92e-5,0.0017 0,0.0026 0.037447,0.0029 0.070704,0.01885 0.1012857,0.03927 -4.498e-4,-0.02942 0.00395,-0.05891 0.00827,-0.08785 0.00603,-0.04042 0.018568,-0.07018 0.03359,-0.09509 z m -4.0183594,0.264583 c 0.013253,-0.007 -0.031957,-0.0012 -0.043925,0.0078 -0.00407,0.0031 -0.0066,0.0079 -0.010335,0.01137 0.018565,-0.0054 0.037274,-0.01013 0.05426,-0.01912 z m -0.4237467,0.08319 c -1.705e-4,5.29e-4 -3.784e-4,8.46e-4 -5.16e-4,0.0016 -0.00102,0.0038 2.805e-4,0.01588 5.16e-4,0.01188 2.645e-4,-0.0045 7.54e-5,-0.009 0,-0.01344 z m 0.392224,0.02894 c 0.00349,0.0082 0.00751,0.01715 0.014986,0.0217 0.00618,0.0038 -0.00319,-0.01674 -0.00982,-0.01964 -0.00262,-0.0011 -0.00274,-9e-4 -0.00517,-0.0021 z m 4.9118449,0.01654 c -3.704e-4,3.17e-4 -0.00111,2.91e-4 -0.00156,5.29e-4 0.00257,-4e-5 9.525e-4,7.15e-4 0.00414,5.29e-4 9.26e-4,-5.3e-5 -0.00196,-8.73e-4 -0.00259,-10e-4 z m -5.3097534,0.05219 c 0.00521,-0.005 -0.011656,0.0086 -0.016536,0.01395 -0.00132,0.0015 -8.943e-4,0.0032 -0.00207,0.0047 0.00495,-0.0042 5.556e-4,-0.0012 0.018603,-0.0186 z m 5.7769083,0.550871 v 0.0093 c 8.732e-4,-6.62e-4 0.00169,-0.0014 0.00259,-0.0021 -2.034e-4,-0.0022 -0.00106,-0.0044 -0.00259,-0.0072 z m -0.025839,0.08113 c -0.00108,10e-4 -0.00265,0.0022 -0.00259,0.0031 6.85e-5,4.5e-4 6.35e-4,-5.9e-5 0.00103,-5.29e-4 1.643e-4,6.88e-4 9.05e-5,0.0014 5.291e-4,0.0021 2.268e-4,-0.0011 0.00122,-0.0027 0.00206,-0.0041 -9.02e-5,-1.83e-4 -9.525e-4,-2.91e-4 -0.00103,-5.29e-4 z"
         style="fill:#ff0000;fill-opacity:1;fill-rule:nonzero;stroke:none;stroke-width:0.264583"
         id="path1386" />
    </clipPath>
    <linearGradient
       gradientTransform="translate(0.7349912,1.0690781)"
       gradientUnits="userSpaceOnUse"
       y2="2.9399648"
       x2="5.261869"
       y1="3.8587039"
       x1="5.261869"
       id="linearGradient1555"
       xlink:href="#linearGradient1553"
       inkscape:collect="always" />
  </defs>
  <sodipodi:namedview
     inkscape:window-maximized="1"
     inkscape:window-y="-8"
     inkscape:window-x="-8"
     inkscape:window-height="715"
     inkscape:window-width="1366"
     units="px"
     showgrid="false"
     inkscape:document-rotation="0"
     inkscape:current-layer="layer1"
     inkscape:document-units="mm"
     inkscape:cy="24.878869"
     inkscape:cx="13.258355"
     inkscape:zoom="7.9195959"
     inkscape:pageshadow="2"
     inkscape:pageopacity="0.0"
     borderopacity="1.0"
     bordercolor="#666666"
     pagecolor="#ffffff"
     id="base" />
  <metadata
     id="metadata5">
    <rdf:RDF>
      <cc:Work
         rdf:about="">
        <dc:format>image/svg+xml</dc:format>
        <dc:type
           rdf:resource="http://purl.org/dc/dcmitype/StillImage" />
        <dc:title></dc:title>
      </cc:Work>
    </rdf:RDF>
  </metadata>
  <g
     id="layer1"
     inkscape:groupmode="layer"
     inkscape:label="Layer 1">
    <ellipse
       ry="0.78510422"
       rx="3.7417734"
       cy="4.4934688"
       cx="5.9801555"
       id="path897"
       style="fill:url(#linearGradient1555);fill-opacity:1;fill-rule:evenodd;stroke:#000000;stroke-width:0.05;stroke-miterlimit:4;stroke-dasharray:none;stroke-opacity:1" />
    <path
       transform="translate(0.7349912,1.0690781)"
       clip-path="url(#clipPath1318)"
       id="path902"
       d="M 1.5061212,3.5163724 2.1354261,11.21686 v 0"
       style="fill:none;stroke:#000000;stroke-width:0.05;stroke-linecap:butt;stroke-linejoin:miter;stroke-miterlimit:4;stroke-dasharray:none;stroke-opacity:1" />
    <ellipse
       ry="3.1117306"
       rx="2.763494"
       cy="8.522296"
       cx="9.2063828"
       id="path1507"
       style="fill:#ffcc66;fill-opacity:1;fill-rule:evenodd;stroke:#000000;stroke-width:0.0509135;stroke-miterlimit:4;stroke-dasharray:none;stroke-opacity:1" />
    <ellipse
       ry="2.5847631"
       rx="2.1143043"
       cy="8.522296"
       cx="9.3363123"
       id="path1509"
       style="fill:#ffffff;fill-opacity:1;fill-rule:evenodd;stroke:#000000;stroke-width:0.05;stroke-miterlimit:4;stroke-dasharray:none;stroke-opacity:1" />
    <path
       transform="translate(0.7349912,1.0690781)"
       clip-path="url(#clipPath1374)"
       id="path904"
       d="M 8.9869377,3.4076864 7.8844509,11.559407"
       style="fill:#ff0000;fill-opacity:0;stroke:#000000;stroke-width:0.05;stroke-linecap:butt;stroke-linejoin:miter;stroke-miterlimit:4;stroke-dasharray:none;stroke-opacity:1" />
    <ellipse
       transform="translate(0.8052807,0.77772211)"
       clip-path="url(#clipPath1384)"
       ry="0.75169563"
       rx="3.0735998"
       cy="11.275433"
       cx="5.0781207"
       id="path908"
       style="fill:#ff0000;fill-opacity:0;fill-rule:evenodd;stroke:#000000;stroke-width:0.05;stroke-miterlimit:4;stroke-dasharray:none;stroke-opacity:1" />
    <path
       d="m 5.9211941,0.67063116 c -0.049562,0.0527633 -0.1032412,0.10121978 -0.166462,0.139208 -0.027618,0.0165943 -0.1138978,0.0609055 -0.085775,0.0450961 0.5631444,-0.3165754 0.7747642,-0.415135 0.4763083,-0.2727059 -0.055675,0.0195096 -0.1098839,0.0433124 -0.1670247,0.058529 C 5.7165684,0.71044108 5.4440879,0.72693047 5.175066,0.75159106 4.8759618,0.77900915 4.9736685,0.76928045 4.6891972,0.80301038 4.1702891,0.87089951 3.997615,0.98696819 3.4874348,1.3391675 c -0.047085,0.032505 -0.047064,0.1800898 -0.050197,0.2224883 0.015457,0.041974 0.024955,0.086382 0.046374,0.1259222 0.1013214,0.1870178 0.2973987,0.3211978 0.4942496,0.4068576 0.049158,0.021392 0.1011565,0.036327 0.1517355,0.05449 0.3343128,0.063443 0.6753956,0.087125 1.0153906,0.1029365 0.2527527,-0.01246 0.4980742,0.025757 0.7396322,0.092356 0.2276827,0.062856 0.466402,0.148669 0.6473468,0.3000587 0.032341,0.027059 0.059616,0.059134 0.089424,0.088701 0.02015,0.030348 0.045515,0.058088 0.06045,0.091041 C 6.7607418,2.9981303 6.608722,3.0943239 6.471774,3.1668252 6.6522224,3.0614252 6.846809,2.9752408 7.0131211,2.8506246 7.0591855,2.816109 6.8998398,2.8806285 6.8419064,2.8894872 6.6171825,2.9238501 6.3833081,2.904341 6.1597594,2.8755579 5.8896022,2.8327028 5.6223982,2.7761453 5.3504502,2.7439149 5.2497562,2.7363286 5.1481979,2.7182121 5.0473581,2.7375762 4.7470256,2.7952571 4.1156258,3.2094043 4.0599482,3.2403153 4.0356399,3.2639213 4.0069492,3.2840792 3.987021,3.3111363 3.947053,3.3654043 3.8764851,3.537907 3.883286,3.6044151 c 0.00943,0.092261 0.08362,0.1964084 0.1280976,0.2718234 0.1567311,0.2029403 0.335905,0.3953129 0.5464986,0.5498851 0.1110443,0.081504 0.1711894,0.1073496 0.2913414,0.1698829 0.2320477,0.109661 0.4937933,0.127217 0.7440921,0.1763663 0.1461633,0.034398 0.2981732,0.050016 0.4380519,0.1060469 0.078584,0.031477 0.1503375,0.076012 0.2229628,0.1176716 0.1455958,0.1035302 0.3111363,0.2064138 0.3968932,0.3651533 0.015577,0.028837 0.024411,0.060534 0.036615,0.090803 0.036801,0.157511 0.00912,0.2601162 -0.073358,0.3963094 0,0 0.7331372,-0.3156771 0.7331372,-0.3156771 v 0 C 7.4113947,5.3862017 7.4340147,5.2405302 7.3734342,5.0877716 7.3347746,5.0033114 7.3235491,4.9652332 7.2639764,4.8905839 7.1671373,4.7692366 7.0297512,4.6854865 6.9006718,4.5992838 6.7575483,4.5171017 6.6117078,4.423947 6.4472348,4.3849923 6.4131892,4.3769311 6.3779033,4.3746491 6.3433539,4.3688252 6.3067172,4.3626615 6.2702492,4.3556247 6.233698,4.3490244 5.9790726,4.3003036 5.7162461,4.2908313 5.4701001,4.2072598 5.4205376,4.1870368 5.3695412,4.1697242 5.3214131,4.1465869 5.0388375,4.0107413 4.811473,3.7905341 4.6579252,3.5293056 4.6403702,3.4828465 4.6169395,3.4380255 4.6052616,3.3899281 4.5650052,3.2241243 4.6573507,3.0664831 4.7927986,2.9686313 3.4271299,3.6981017 4.2376751,3.2389431 4.4139991,3.1861662 c 0.097017,-0.02904 0.1977292,-0.010218 0.2967221,-0.00943 0.2846391,0.016775 0.5676569,0.050272 0.8478747,0.1011797 0.2312371,0.033561 0.4585036,0.047016 0.6924606,0.03351 0.052967,-0.00306 0.1103705,0.00778 0.1585751,-0.013297 0.2724551,-0.1190586 0.5290118,-0.2685034 0.7935179,-0.402755 0.029909,-0.021858 0.062873,-0.040393 0.089729,-0.065575 C 7.4611428,2.6720271 7.4132304,2.5086921 7.2736133,2.3536029 7.188346,2.2753196 7.1541532,2.2373246 7.0541768,2.1731758 6.8908016,2.0683481 6.7034265,2.0017689 6.5219591,1.9320519 6.4596376,1.9120717 6.3470205,1.8742224 6.2821398,1.860241 6.1127269,1.8237337 5.936658,1.8275617 5.7642585,1.8259759 5.4243751,1.8313786 5.0789305,1.8362745 4.7478535,1.7523049 4.5160817,1.6792317 4.250283,1.578385 4.1612491,1.3385391 4.1484498,1.3040448 4.1487901,1.2663529 4.1425612,1.2302594 c 0.00562,-0.029922 0.00518,-0.061466 0.016846,-0.089768 C 4.2477822,0.92618081 4.7766741,0.7681921 3.6350456,1.356385 3.5928376,1.378131 3.7179766,1.309855 3.762191,1.292057 3.9019843,1.235787 3.992658,1.223749 4.1435641,1.1912337 4.3398274,1.1593897 4.4520499,1.1381567 4.6526097,1.1184867 4.9452404,1.0897887 5.2418087,1.0986227 5.5318573,1.0489947 5.9395931,0.8478484 6.3548568,0.65392529 6.7063553,0.37143982 c 0,0 -0.7851607,0.29919256 -0.7851612,0.29919134 z"
       id="path1579"
       style="font-variation-settings:normal;opacity:1;vector-effect:none;fill:#000000;fill-opacity:0.518072;stroke:#000000;stroke-width:0;stroke-linecap:butt;stroke-linejoin:miter;stroke-miterlimit:4;stroke-dasharray:none;stroke-dashoffset:0;stroke-opacity:1;stop-color:#000000;stop-opacity:1" />
    <path
       id="path1390"
       d="M 4.9458883,12.733724 C 4.0333418,12.656002 3.2331896,12.45775 2.9892247,12.248925 c -0.095323,-0.08159 -0.098582,-0.08906 -0.098582,-0.225836 0,-0.0778 0.012371,-0.164673 0.027491,-0.193053 0.024851,-0.04664 0.023717,-0.04849 -0.011812,-0.01918 -0.028129,0.0232 -0.039303,0.0244 -0.039303,0.0042 0,-0.01552 -0.127567,-1.58806 -0.2834822,-3.4945266 C 2.4276219,6.4140635 2.3000549,4.82102 2.3000549,4.780434 V 4.706641 L 2.4354928,4.788197 C 3.3373901,5.3312913 6.7154653,5.4895679 8.6505688,5.079399 9.0920216,4.985828 9.4830554,4.8441055 9.605626,4.7332581 9.643621,4.6988971 9.646883,4.6995141 9.645934,4.7408681 9.6453519,4.7656201 9.4346642,6.3361275 9.177708,8.2308863 8.8287695,10.80391 8.7019663,11.681221 8.6767415,11.696916 c -0.025625,0.01594 -0.027626,0.03116 -0.00829,0.06308 0.01856,0.03064 0.015573,0.117321 -0.011001,0.319166 l -0.036485,0.277105 -0.1463294,0.05858 c -0.2882074,0.115378 -0.7667252,0.218032 -1.3435711,0.288231 -0.3604937,0.04387 -1.793884,0.06397 -2.1851747,0.03065 z m 2.8284234,-1.312102 c -0.00785,-0.0078 -0.028226,-0.0087 -0.045279,-0.0019 -0.018846,0.0075 -0.013248,0.01314 0.014272,0.01427 0.024903,10e-4 0.038856,-0.0046 0.031006,-0.01241 z"
       style="font-variation-settings:normal;opacity:1;vector-effect:none;fill:#ffcc66;fill-opacity:1;stroke:#ff0000;stroke-width:0.0477269;stroke-linecap:butt;stroke-linejoin:miter;stroke-miterlimit:4;stroke-dasharray:none;stroke-dashoffset:0;stroke-opacity:0;stop-color:#000000;stop-opacity:1" />
    <circle
       r="0.0029435109"
       cy="1.9042953"
       cx="-4.5101733"
       style="fill:#ffffff;stroke:#000000;stroke-width:0.264583"
       id="path1559" />
    <text
       transform="matrix(0.6019902,-0.67133623,0.82566598,0.74037836,0,0)"
       id="text1573"
       y="10.502441"
       x="-6.7603526"
       style="font-size:3.27704px;line-height:1.25;font-family:Lobster;-inkscape-font-specification:Lobster;stroke-width:0.307222"
       xml:space="preserve"><tspan
         style="font-size:3.27703px;stroke-width:0.307222"
         y="10.502441"
         x="-6.7603526"
         id="tspan1571"
         sodipodi:role="line">Abdel</tspan></text>
  </g>
</svg>
