<?xml version="1.0" encoding="UTF-8" standalone="no"?>
<svg
   xmlns:dc="http://purl.org/dc/elements/1.1/"
   xmlns:cc="http://creativecommons.org/ns#"
   xmlns:rdf="http://www.w3.org/1999/02/22-rdf-syntax-ns#"
   xmlns:svg="http://www.w3.org/2000/svg"
   xmlns="http://www.w3.org/2000/svg"
   xmlns:sodipodi="http://sodipodi.sourceforge.net/DTD/sodipodi-0.dtd"
   xmlns:inkscape="http://www.inkscape.org/namespaces/inkscape"
   inkscape:version="1.0 (4035a4fb49, 2020-05-01)"
   inkscape:export-ydpi="96"
   inkscape:export-xdpi="96"
   inkscape:export-filename="C:\Users\Samha\OneDrive\Desktop\portfolio\Abdel_web_portfolio\images\icons\header-logo.png"
   sodipodi:docname="header-logo.svg"
   id="svg8"
   version="1.1"
   viewBox="0 0 66.145832 79.375002"
   height="300"
   width="250">
  <defs
     id="defs2" />
  <sodipodi:namedview
     inkscape:window-maximized="0"
     inkscape:window-y="0"
     inkscape:window-x="76"
     inkscape:window-height="729"
     inkscape:window-width="1274"
     units="px"
     showgrid="false"
     inkscape:document-rotation="0"
     inkscape:current-layer="layer1"
     inkscape:document-units="mm"
     inkscape:cy="195.75409"
     inkscape:cx="-64.227538"
     inkscape:zoom="0.98994949"
     inkscape:pageshadow="2"
     inkscape:pageopacity="0.0"
     borderopacity="1.0"
     bordercolor="#666666"
     pagecolor="#ffffff"
     id="base" />
  <metadata
     id="metadata5">
    <rdf:RDF>
      <cc:Work
         rdf:about="">
        <dc:format>image/svg+xml</dc:format>
        <dc:type
           rdf:resource="http://purl.org/dc/dcmitype/StillImage" />
        <dc:title></dc:title>
      </cc:Work>
    </rdf:RDF>
  </metadata>
  <g
     id="layer1"
     inkscape:groupmode="layer"
     inkscape:label="Layer 1">
    <path
       d="m 27.756001,25.862848 c -0.67251,0.0093 -1.345127,0.0082 -2.017689,0.0086 -0.783688,-0.03795 -1.558961,0.07215 -2.336913,0.146329 -1.994906,0.190208 -0.339592,-0.0018 -2.640228,0.291882 -1.540118,0.243003 -3.073523,0.530492 -4.594938,0.871925 -0.714028,0.160241 -1.565903,0.34877 -2.253736,0.622546 -0.324108,0.129004 -0.627756,0.304425 -0.941634,0.456637 -0.932505,0.553591 -2.566763,1.251515 -2.411884,2.646981 0.06939,0.625244 0.384112,0.773044 0.809818,1.195474 1.201778,0.730073 2.544416,1.283595 3.922152,1.584674 1.108551,0.242253 1.866465,0.280452 3.015798,0.395345 1.509779,0.08242 3.021589,0.251774 4.53514,0.263563 1.572034,0.01224 3.154484,-0.133563 4.723116,-0.216755 2.755054,-0.07664 5.493936,-0.377523 8.244001,-0.538976 1.218785,-0.04778 2.458842,-0.121022 3.629475,-0.493277 0.522222,-0.166063 0.829276,-0.319184 1.322859,-0.539918 0.780158,-0.371125 1.505264,-0.837725 2.239467,-1.28998 0,0 -0.634042,0.247445 -0.634042,0.247445 v 0 c 0.0146,0.0047 0.05674,0.0059 0.04381,0.01416 -0.23395,0.149999 -0.883351,0.484069 -1.119978,0.608386 -0.491948,0.224979 -0.806413,0.384304 -1.32646,0.556077 -1.177663,0.388985 -2.427732,0.475304 -3.658005,0.531214 -2.766644,0.17963 -5.523071,0.476191 -8.294563,0.576902 -1.556404,0.07758 -3.123729,0.195725 -4.682918,0.193871 -1.522617,-0.0018 -3.044916,-0.13901 -4.562616,-0.239079 -1.184406,-0.131728 -1.826987,-0.166057 -2.960245,-0.421882 -1.36019,-0.307053 -2.692716,-0.837269 -3.872831,-1.577229 -0.392564,-0.401127 -0.704421,-0.563071 -0.764318,-1.15067 -0.09166,-0.899179 0.645979,-1.508485 1.307368,-1.951074 0.313899,-0.156026 0.617193,-0.33551 0.941697,-0.468078 0.68975,-0.281781 1.564884,-0.485174 2.281331,-0.651482 1.519167,-0.352643 3.052088,-0.64593 4.594284,-0.878128 1.61546,-0.18781 3.242114,-0.372072 4.870047,-0.36916 0.664625,3.97e-4 1.329307,-8.2e-4 1.993878,0.0086 0,0 0.598752,-0.435018 0.598752,-0.435017 z"
       id="path1397"
       style="font-variation-settings:normal;opacity:1;vector-effect:none;fill:#ffffff;fill-opacity:1;stroke:#000000;stroke-width:0.264583;stroke-linecap:butt;stroke-linejoin:miter;stroke-miterlimit:4;stroke-dasharray:none;stroke-dashoffset:0;stroke-opacity:1;stop-color:#000000;stop-opacity:1" />
    <path
       d="m 11.326097,31.696911 c 0.721298,0.668804 0.982668,1.554296 1.184229,2.485633 0.101757,0.520841 0.14318,1.049489 0.182999,1.577618 0,0 0.619215,-0.321762 0.619215,-0.321762 v 0 c -0.04485,-0.529408 -0.09178,-1.059193 -0.1962,-1.581124 -0.210065,-0.966097 -0.451462,-1.812239 -1.159828,-2.538866 0,0 -0.630415,0.378501 -0.630415,0.378501 z"
       id="path1399"
       style="font-variation-settings:normal;opacity:1;vector-effect:none;fill:#ffffff;fill-opacity:1;stroke:#000000;stroke-width:0.264583;stroke-linecap:butt;stroke-linejoin:miter;stroke-miterlimit:4;stroke-dasharray:none;stroke-dashoffset:0;stroke-opacity:1;stop-color:#000000;stop-opacity:1" />
    <path
       d="m 10.871745,30.93002 c 0.05007,0.903222 -0.111158,1.808745 -0.250944,2.698797 -0.277558,1.659303 -0.6933081,3.289842 -0.9793788,4.947899 -0.1669817,1.476897 -0.3817501,2.947462 -0.5350502,4.425866 -0.054892,0.850638 -0.1538136,1.703671 -0.1160465,2.557497 0.010867,0.245687 0.089445,1.168165 0.1092375,1.407827 0.1446821,1.554641 0.1997826,3.114794 0.2297573,4.675187 0.022291,1.621589 0.013922,3.243374 0.012314,4.865058 0.016835,1.260234 -0.060966,2.523567 0.064967,3.779446 0.069903,0.211558 0.1238314,0.429085 0.2097101,0.634677 0.2252054,0.539144 0.5505566,1.07387 0.8436086,1.574935 0.467259,0.798928 0.972561,1.56396 1.488913,2.331622 0.66982,1.024784 1.390281,1.98125 1.742927,3.16588 0.261471,0.860049 0.370495,1.752338 0.560107,2.628262 0.14546,0.543687 0.19323,1.149099 0.467778,1.652114 0.177601,0.325395 0.368407,0.49398 0.619425,0.761815 0.182985,0.124883 0.353181,0.27096 0.548956,0.374653 1.308876,0.693242 2.922156,0.936762 4.37349,1.085484 2.626119,0.235432 5.259072,0.05089 7.886604,-0.04805 2.308344,-0.04534 4.606184,-0.275212 6.909488,-0.414412 1.018572,-0.03811 2.003597,-0.295449 2.987032,-0.53744 0,0 0.50066,-0.38258 0.50066,-0.38258 v 0 c -0.978592,0.241848 -1.958644,0.494573 -2.971667,0.54006 -2.319031,0.155657 -4.633693,0.379669 -6.957536,0.451562 -2.6097,0.106034 -5.228623,0.249303 -7.836244,0.02257 -1.441929,-0.15806 -3.024879,-0.372602 -4.318899,-1.082479 -0.188205,-0.103246 -0.350429,-0.248039 -0.525643,-0.37206 -0.250956,-0.268206 -0.424049,-0.416986 -0.598917,-0.743045 -0.269006,-0.501584 -0.318742,-1.10049 -0.465033,-1.640674 -0.190377,-0.877713 -0.296097,-1.772809 -0.56217,-2.633612 -0.372938,-1.210189 -1.113229,-2.109373 -1.798383,-3.157785 -0.518168,-0.764643 -1.030385,-1.523227 -1.491414,-2.324393 -0.296521,-0.515287 -0.593519,-1.02203 -0.808252,-1.578629 -0.079,-0.204782 -0.124775,-0.420878 -0.187163,-0.63132 -0.1403752,-1.249203 -0.063979,-2.506863 -0.083956,-3.761501 -0.00204,-1.618412 -0.012401,-3.236796 -0.034329,-4.855067 -0.023302,-1.565585 -0.049616,-3.131294 -0.2094381,-4.690409 -0.1049496,-1.318787 -0.140684,-2.636089 0.012097,-3.954262 0.147253,-1.475433 0.3707784,-2.941894 0.5262374,-4.416525 0.280223,-1.666252 0.69004,-3.303173 1.006866,-4.962178 0.146021,-0.907696 0.30576,-1.83004 0.277819,-2.751408 0,0 -0.64753,0.356623 -0.64753,0.356623 z"
       id="path1401"
       style="font-variation-settings:normal;opacity:1;vector-effect:none;fill:#ffffff;fill-opacity:1;stroke:#000000;stroke-width:0.264583;stroke-linecap:butt;stroke-linejoin:miter;stroke-miterlimit:4;stroke-dasharray:none;stroke-dashoffset:0;stroke-opacity:1;stop-color:#000000;stop-opacity:1" />
    <path
       d="m 38.224521,73.355124 c 0.686562,-0.0208 1.385982,-0.02832 2.061207,-0.17195 0.49534,-0.105365 0.717145,-0.215035 1.199682,-0.401407 1.520388,-0.668875 2.9157,-1.580756 4.245983,-2.567406 0.81345,-0.755851 1.624478,-1.537144 2.183873,-2.504365 0.05251,-0.124209 0.105021,-0.24842 0.157533,-0.372629 0,0 -0.644382,0.296111 -0.644382,0.296111 v 0 c -0.0526,0.121068 -0.105212,0.242139 -0.157816,0.363207 -0.55997,0.952211 -1.356619,1.731833 -2.17147,2.468713 -0.972121,0.720381 -1.954511,1.435608 -3.081091,1.898359 -0.446726,0.174937 -0.71827,0.302964 -1.180772,0.40585 -0.658281,0.146436 -1.345256,0.163541 -2.016136,0.152053 0,0 -0.596611,0.433464 -0.596611,0.433464 z"
       id="path1403"
       style="font-variation-settings:normal;opacity:1;vector-effect:none;fill:#ffffff;fill-opacity:1;stroke:#000000;stroke-width:0.264583;stroke-linecap:butt;stroke-linejoin:miter;stroke-miterlimit:4;stroke-dasharray:none;stroke-dashoffset:0;stroke-opacity:1;stop-color:#000000;stop-opacity:1" />
    <path
       d="m 40.846679,32.345484 c 0.954019,-0.06566 1.930157,0.07651 2.875256,-0.111188 0.19435,-0.0386 0.382048,-0.105282 0.573072,-0.157924 0.613865,-0.279817 1.852199,-0.732598 1.959155,-1.515045 0.05465,-0.399826 -0.09048,-0.51564 -0.280697,-0.857456 -1.023652,-1.179497 -2.299814,-1.576634 -3.735109,-2.05258 -1.463956,-0.523952 -2.983215,-0.835976 -4.500544,-1.153633 -1.121921,-0.273215 -2.253983,-0.488294 -3.374234,-0.767868 -1.385044,-0.344686 -2.809568,-0.470777 -4.229963,-0.561677 -0.504793,-0.03691 -1.00815,-0.04373 -1.513594,-0.02995 0,0 -0.565049,0.413232 -0.565049,0.413232 v 0 c 0.50832,-0.01789 1.015177,-0.01704 1.523299,0.01521 1.420323,0.07734 2.844707,0.195946 4.227814,0.54742 0.413295,0.106819 0.822126,0.231856 1.238803,0.324614 0.709176,0.157873 1.436976,0.242851 2.13728,0.445657 1.522648,0.311249 3.049125,0.609965 4.518218,1.131984 1.363819,0.457937 2.708275,0.899883 3.667496,2.035079 0.214931,0.407572 0.396292,0.683273 0.100581,1.11937 -0.07866,0.116004 -0.2256,0.18252 -0.284305,0.309791 -0.0249,0.05397 0.221286,-0.08566 0.168409,-0.05853 -0.167526,0.08595 -0.342275,0.157032 -0.513413,0.235548 -0.18901,0.05536 -0.374401,0.125054 -0.567031,0.166079 -0.926058,0.197226 -1.889853,0.07216 -2.826695,0.08686 0,0 -0.598749,0.435018 -0.598749,0.435018 z"
       id="path1407"
       style="font-variation-settings:normal;opacity:1;vector-effect:none;fill:#ffffff;fill-opacity:1;stroke:#000000;stroke-width:0.264583;stroke-linecap:butt;stroke-linejoin:miter;stroke-miterlimit:4;stroke-dasharray:none;stroke-dashoffset:0;stroke-opacity:1;stop-color:#000000;stop-opacity:1" />
    <circle
       r="0.0066604041"
       cy="67.279762"
       cx="48.947914"
       style="fill:#ffffff;stroke:#000000;stroke-width:0.264583"
       id="path1413" />
    <path
       d="m 47.258779,66.973557 c 0.02718,-0.184616 0.04473,-0.370911 0.08155,-0.553852 0.02752,-0.136753 0.361469,-1.471488 0.381352,-1.555795 0.199872,-0.847495 0.392899,-1.69001 0.626499,-2.529181 0.349435,-1.097095 0.582909,-2.215296 0.680244,-3.361047 0.06377,-1.199624 0.04037,-2.402496 0.04263,-3.603509 0.0056,-1.223894 -0.150892,-2.44707 -0.358061,-3.651806 -0.22148,-1.048228 -0.312886,-2.11469 -0.365771,-3.182654 -0.0059,-1.076986 -0.05921,-2.145808 -0.182041,-3.215624 -0.153519,-1.121648 -0.358169,-2.235549 -0.641363,-3.331567 -0.280233,-1.1904 -0.662731,-2.353874 -1.050978,-3.512573 -0.318796,-1.026296 -0.61005,-2.060328 -0.808762,-3.117027 -0.120412,-0.66721 -0.15443,-1.3444 -0.175234,-2.020606 0,0 -0.632801,0.32503 -0.632801,0.32503 v 0 c 0.02331,0.678161 0.06148,1.357269 0.191124,2.025007 0.212656,1.055142 0.493385,2.094324 0.826053,3.118026 0.390038,1.156929 0.769816,2.319461 1.044464,3.510224 0.273264,1.094612 0.494337,2.204201 0.635902,3.323846 0.11947,1.070174 0.167757,2.138463 0.173366,3.215487 0.0611,1.068067 0.149884,2.137351 0.379666,3.184546 0.207357,1.200369 0.363977,2.419678 0.35686,3.639359 0.0052,1.202069 0.01233,2.405523 -0.06064,3.605946 -0.09622,1.133252 -0.321662,2.243002 -0.650462,3.332765 -0.225105,0.839706 -0.416862,1.684232 -0.622435,2.528623 -0.128344,0.527177 -0.287809,1.046626 -0.409303,1.575422 -0.04277,0.186148 -0.07046,0.375438 -0.105685,0.563158 0,0 0.643829,-0.312198 0.643829,-0.312198 z"
       id="path1415"
       style="font-variation-settings:normal;opacity:1;vector-effect:none;fill:#ffffff;fill-opacity:1;stroke:#000000;stroke-width:0.264583;stroke-linecap:butt;stroke-linejoin:miter;stroke-miterlimit:4;stroke-dasharray:none;stroke-dashoffset:0;stroke-opacity:1;stop-color:#000000;stop-opacity:1" />
    <path
       d="m 46.881838,39.775272 c 1.527056,-0.701817 3.041142,-1.437058 4.612222,-2.036161 0.720815,-0.240279 1.384281,-0.608538 2.162394,-0.626916 0.803752,-0.01898 1.474338,0.290351 2.177807,0.628842 0.847196,0.552583 1.586137,1.28691 1.999721,2.225624 0.247793,0.562414 0.29714,0.946192 0.426101,1.546177 0.168772,2.126559 -0.673426,3.820382 -1.752113,5.579975 -1.157283,1.908604 -2.326064,3.809947 -3.574992,5.660147 -1.23739,1.778629 -2.57515,3.487647 -3.920337,5.186135 -0.170032,0.218302 -0.340063,0.436604 -0.510095,0.654907 0,0 0.605996,-0.260019 0.605996,-0.260019 v 0 c 0.167145,-0.216853 0.334291,-0.433703 0.501436,-0.650555 1.337103,-1.6997 2.651122,-3.420335 3.902583,-5.183796 1.242613,-1.856928 2.408719,-3.763156 3.580087,-5.665547 1.073592,-1.780622 1.913327,-3.491084 1.74801,-5.632593 -0.12069,-0.570865 -0.186627,-1.033645 -0.423093,-1.571082 -0.417205,-0.948228 -1.184529,-1.686497 -2.028272,-2.255441 -0.709946,-0.348851 -1.385255,-0.665762 -2.198685,-0.661682 -0.788709,0.004 -1.447567,0.371187 -2.175703,0.617702 -1.555842,0.589645 -3.048976,1.326984 -4.570888,1.997465 0,0 -0.562179,0.446818 -0.562179,0.446818 z"
       id="path1423"
       style="font-variation-settings:normal;opacity:1;vector-effect:none;fill:#ffffff;fill-opacity:1;stroke:#000000;stroke-width:0.264583;stroke-linecap:butt;stroke-linejoin:miter;stroke-miterlimit:4;stroke-dasharray:none;stroke-dashoffset:0;stroke-opacity:1;stop-color:#000000;stop-opacity:1" />
    <path
       d="m 47.957634,63.065799 c 0.946814,-0.620157 1.909892,-1.19525 2.783152,-1.921071 0.16324,-0.140867 0.33415,-0.273307 0.48972,-0.4226 0.585446,-0.561827 1.09316,-1.209472 1.637435,-1.809475 0.427762,-0.471564 0.865769,-0.933731 1.297482,-1.401681 1.065731,-1.190373 2.109819,-2.402284 3.19264,-3.576973 0.684315,-0.778764 1.466185,-1.47184 2.107903,-2.288945 0.24651,-0.31388 0.599805,-0.864336 0.821259,-1.200295 0.736745,-1.200714 1.279252,-2.545268 1.539362,-3.933241 0.05965,-0.318338 0.09318,-0.641027 0.139774,-0.961541 0.120226,-1.410009 0.113154,-2.834851 -0.0028,-4.245213 -0.08374,-0.800396 -0.206632,-1.602864 -0.443241,-2.373148 -0.443558,-1.037098 -1.187035,-1.926873 -1.958493,-2.738428 -0.686465,-0.694146 -1.533936,-1.034578 -2.47722,-1.193376 -0.763482,-0.09331 -1.534515,-0.07828 -2.302079,-0.07318 -0.937681,-0.0058 -1.863172,0.169713 -2.79342,0.266683 -0.164868,0.02103 -0.330748,0.03524 -0.494599,0.0631 -0.178581,0.03036 -0.860841,0.188947 -1.027332,0.22325 -0.602414,0.124118 -1.210953,0.204712 -1.819122,0.294374 0,0 -0.545399,0.408528 -0.545399,0.408528 v 0 c 0.605452,-0.08844 1.212821,-0.163005 1.813026,-0.283606 0.341294,-0.06858 0.677002,-0.164443 1.01977,-0.225221 0.163801,-0.02904 0.329835,-0.04368 0.49475,-0.06551 0.925041,-0.09436 1.844921,-0.267381 2.776852,-0.262865 0.765874,-0.0057 1.534716,-0.02182 2.297348,0.06196 0.935792,0.144624 1.783456,0.462246 2.471306,1.143121 0.765718,0.80056 1.50399,1.685222 1.923235,2.720619 0.218517,0.768908 0.359659,1.560338 0.448506,2.354421 0.129458,1.397082 0.157925,2.808891 0.04212,4.207796 -0.04785,0.319077 -0.08158,0.640596 -0.143555,0.957233 -0.271867,1.389041 -0.827926,2.726759 -1.575483,3.924448 -0.243644,0.369808 -0.544346,0.843045 -0.818602,1.18953 -0.643099,0.812461 -1.421493,1.505886 -2.102427,2.284407 -1.081807,1.169294 -2.121024,2.379112 -3.178053,3.570885 -0.43244,0.468337 -0.86891,0.932966 -1.299001,1.403464 -0.553125,0.605092 -1.076116,1.250373 -1.672598,1.814658 -0.155845,0.147431 -0.325043,0.280072 -0.487564,0.420108 -0.89109,0.728724 -1.870469,1.310902 -2.836222,1.932144 0,0 0.681546,-0.264361 0.681546,-0.264361 z"
       id="path1425"
       style="font-variation-settings:normal;opacity:1;vector-effect:none;fill:#ffffff;fill-opacity:1;stroke:#000000;stroke-width:0.264583;stroke-linecap:butt;stroke-linejoin:miter;stroke-miterlimit:4;stroke-dasharray:none;stroke-dashoffset:0;stroke-opacity:1;stop-color:#000000;stop-opacity:1" />
    <path
       d="m 49.304104,35.48367 c -0.749488,-0.07335 -1.502868,-0.08635 -2.253517,-0.144579 0,0 -0.566251,0.404628 -0.566251,0.404628 v 0 c 0.737767,0.05926 1.479672,0.06793 2.214094,0.164897 0,0 0.605674,-0.424946 0.605674,-0.424946 z"
       id="path1427"
       style="font-variation-settings:normal;opacity:1;vector-effect:none;fill:#ffffff;fill-opacity:1;stroke:#000000;stroke-width:0.264583;stroke-linecap:butt;stroke-linejoin:miter;stroke-miterlimit:4;stroke-dasharray:none;stroke-dashoffset:0;stroke-opacity:1;stop-color:#000000;stop-opacity:1" />
    <path
       d="m 47.041763,35.259057 c -0.303943,-0.188862 -0.142711,-0.08614 -0.482672,-0.309755 0,0 -0.605139,0.386959 -0.605139,0.386959 v 0 c 0.333182,0.230975 0.176231,0.121334 0.471104,0.328567 0,0 0.616707,-0.405771 0.616707,-0.405771 z"
       id="path1429"
       style="font-variation-settings:normal;opacity:1;vector-effect:none;fill:#ffffff;fill-opacity:1;stroke:#000000;stroke-width:0.264583;stroke-linecap:butt;stroke-linejoin:miter;stroke-miterlimit:4;stroke-dasharray:none;stroke-dashoffset:0;stroke-opacity:1;stop-color:#000000;stop-opacity:1" />
    <path
       d="m 12.632361,31.597322 c 0.460478,-0.516785 1.051381,-0.886131 1.603386,-1.293854 0.0347,-0.02563 -0.149423,0.08471 -0.108853,0.07003 0.17976,-0.06505 0.352531,-0.148001 0.528796,-0.222001 1.50535,-0.518934 3.11823,-0.420953 4.682436,-0.343645 1.725806,0.108462 3.45383,0.175468 5.182286,0.222479 1.265024,-0.01898 2.493268,0.324984 3.727745,0.554889 1.242002,0.193426 2.503385,0.207798 3.757647,0.227039 1.395505,-0.01003 2.732379,-0.430039 4.083444,-0.726042 1.146461,-0.209958 2.310001,-0.399405 3.477496,-0.310602 0.134384,0.02414 0.268769,0.04828 0.403153,0.07242 0,0 0.579877,-0.405516 0.579877,-0.405516 v 0 c -0.136885,-0.02537 -0.273772,-0.05074 -0.410657,-0.07611 -1.180499,-0.09082 -2.354781,0.105054 -3.514728,0.313149 -1.347263,0.29329 -2.678017,0.711947 -4.068548,0.734361 -1.248825,-0.01884 -2.503987,-0.03288 -3.740806,-0.225206 -1.244118,-0.219797 -2.480359,-0.574118 -3.752421,-0.550379 -1.733924,-0.03379 -3.467085,-0.09664 -5.197862,-0.209095 -1.555901,-0.07833 -3.164256,-0.198827 -4.667923,0.295947 -1.207895,0.484564 -2.30665,1.234087 -3.231803,2.148559 0,0 0.667335,-0.276419 0.667335,-0.276419 z"
       id="path1431"
       style="font-variation-settings:normal;opacity:1;vector-effect:none;fill:#ffffff;fill-opacity:1;stroke:#000000;stroke-width:0.264583;stroke-linecap:butt;stroke-linejoin:miter;stroke-miterlimit:4;stroke-dasharray:none;stroke-dashoffset:0;stroke-opacity:1;stop-color:#000000;stop-opacity:1" />
    <path
       d="m 25.796907,30.882217 c 0.568941,-1.228233 1.518041,-2.239286 2.126416,-3.443672 0.118721,-0.235032 0.202673,-0.486066 0.304011,-0.729101 0.235633,-0.903856 0.355981,-1.888808 -0.197844,-2.711291 -0.313114,-0.465 -0.752388,-0.798751 -1.168025,-1.160767 -0.659338,-0.489602 -1.374386,-0.893659 -2.072429,-1.323029 -0.336748,-0.207135 -0.825751,-0.497929 -1.109505,-0.787091 -0.155769,-0.158738 -0.271771,-0.35212 -0.407656,-0.52818 -0.0946,-0.206016 -0.220832,-0.400269 -0.283793,-0.618047 -0.228119,-0.789052 -0.03724,-1.896404 0.447303,-2.561802 0.139857,-0.192057 0.322918,-0.348579 0.484377,-0.522868 0.58829,-0.642657 1.47328,-1.074464 1.758767,-1.953013 0.130443,-0.401424 0.07205,-0.626119 0.03708,-1.027694 -0.06467,-0.15468 -0.107363,-0.320515 -0.194019,-0.464038 -0.511398,-0.847002 -1.649635,-1.152077 -2.519909,-1.473405 -0.757065,-0.317134 -1.578524,-0.425121 -2.355942,-0.67158 C 20.113054,10.737767 19.970032,10.646325 19.466981,10.403308 18.675132,9.9003899 17.962419,9.2009575 17.7741,8.2439586 17.74475,8.0948026 17.75051,7.9408429 17.73871,7.7892851 17.83102,6.752828 18.519308,6.003459 19.305853,5.3954357 c 0.74737,-0.472716 1.472024,-0.9592472 2.146421,-1.5330599 0,0 -0.637637,0.2578386 -0.637637,0.2578386 v 0 c -0.680699,0.5699982 -1.415353,1.0485035 -2.156497,1.5345153 -0.788572,0.6303997 -1.469799,1.4047528 -1.541998,2.4588753 0.01593,0.1550104 0.01506,0.3126803 0.04779,0.4650308 0.209293,0.9742017 0.925166,1.6798842 1.735249,2.1991162 0.47061,0.231025 0.68194,0.35556 1.180779,0.518316 0.774595,0.252726 1.601617,0.339396 2.355797,0.663544 0.8445,0.310596 1.982452,0.609569 2.476498,1.433305 0.08257,0.13767 0.122198,0.296901 0.183298,0.445351 0.03252,0.390241 0.08904,0.599745 -0.04439,0.988136 -0.295193,0.859269 -1.179687,1.286338 -1.750874,1.929956 -0.161604,0.180457 -0.345714,0.343047 -0.484812,0.541371 -0.481517,0.686541 -0.649166,1.814874 -0.415569,2.615626 0.06491,0.222497 0.193432,0.421256 0.290148,0.631884 0.13823,0.181109 0.255272,0.380558 0.41469,0.543329 0.28956,0.295649 0.780975,0.578163 1.126905,0.786775 0.699398,0.421771 1.411503,0.824598 2.07031,1.310235 0.426982,0.371769 0.823905,0.66519 1.141225,1.144742 0.53454,0.807827 0.411704,1.773629 0.180784,2.657027 -0.10038,0.239244 -0.183922,0.48627 -0.301135,0.71773 -0.617538,1.219456 -1.549531,2.260817 -2.199657,3.462287 0,0 0.673731,-0.285149 0.673731,-0.285149 z"
       id="path1441"
       style="font-variation-settings:normal;opacity:1;vector-effect:none;fill:#ffffff;fill-opacity:1;stroke:#000000;stroke-width:0.264583;stroke-linecap:butt;stroke-linejoin:miter;stroke-miterlimit:4;stroke-dasharray:none;stroke-dashoffset:0;stroke-opacity:1;stop-color:#000000;stop-opacity:1" />
    <path
       d="m 28.08234,31.001671 c 0.476766,-0.579112 0.922989,-1.191514 1.456775,-1.721483 0.322582,-0.320275 0.519575,-0.453321 0.877419,-0.727437 0.529659,-0.496888 1.167911,-0.877898 1.681996,-1.391796 0.139724,-0.139673 0.737328,-0.852501 0.859636,-0.997057 0.741122,-0.864289 1.278007,-1.672817 1.591988,-2.769299 0.183097,-0.956693 -0.153133,-1.419744 -0.735735,-2.113538 -0.553842,-0.640383 -1.167418,-1.22822 -1.745726,-1.847649 -0.736322,-0.696421 -1.274665,-1.502978 -1.57879,-2.469097 -0.01151,-0.128669 -0.04422,-0.257191 -0.0345,-0.386008 0.04996,-0.662645 0.840748,-1.256676 1.280896,-1.683233 0.603824,-0.580907 1.065151,-1.112133 1.32271,-1.916821 0.0441,-0.317308 0.178803,-0.674919 0.113057,-1.000654 -0.07955,-0.394115 -0.406001,-0.755022 -0.6369,-1.062706 C 31.867829,10.082156 31.001501,9.4685415 30.054978,8.9950889 28.98399,8.6030714 27.918605,8.2142361 26.91866,7.6611193 26.105562,7.1646509 25.490841,6.3694651 25.400679,5.397596 c -0.01714,-0.1847535 -1.6e-4,-0.3710938 -2.4e-4,-0.5566405 0.174122,-1.1819355 0.786844,-1.8817799 1.638265,-2.6607376 0,0 -0.631218,0.2583992 -0.631218,0.2583992 v 0 c -0.850319,0.7872231 -1.479461,1.5225129 -1.621874,2.716116 0.0024,0.1890572 -0.01245,0.3791159 0.0071,0.5671719 0.102676,0.986423 0.720265,1.8095 1.551251,2.3139114 0.997703,0.5518941 2.056061,0.9583383 3.127763,1.3434362 0.941255,0.45863 1.809044,1.0607994 2.461231,1.8922054 0.214365,0.29813 0.529714,0.653002 0.59916,1.031254 0.05908,0.321774 -0.0714,0.66908 -0.122352,0.980711 -0.260847,0.768995 -0.735494,1.323646 -1.320704,1.878586 -0.475629,0.461881 -1.237589,1.012193 -1.262891,1.745289 -0.0046,0.132698 0.03208,0.263611 0.04811,0.395417 0.3227,0.965515 0.853393,1.793025 1.594242,2.495611 0.576524,0.618381 1.182703,1.210716 1.734743,1.849977 0.569352,0.677734 0.900954,1.112078 0.709197,2.048948 -0.310001,1.065796 -0.853479,1.89267 -1.578345,2.731085 -0.213892,0.250829 -0.637355,0.759353 -0.875766,0.992033 -0.519924,0.507417 -1.149331,0.896202 -1.68298,1.388485 -0.368043,0.287909 -0.537996,0.402566 -0.87028,0.737701 -0.53793,0.542536 -0.99037,1.164709 -1.486448,1.743697 0,0 0.66367,-0.288581 0.66367,-0.288581 z"
       id="path1443"
       style="font-variation-settings:normal;opacity:1;vector-effect:none;fill:#ffffff;fill-opacity:1;stroke:#000000;stroke-width:0.264583;stroke-linecap:butt;stroke-linejoin:miter;stroke-miterlimit:4;stroke-dasharray:none;stroke-dashoffset:0;stroke-opacity:1;stop-color:#000000;stop-opacity:1" />
    <text
       id="text1447"
       y="44.979164"
       x="14.741071"
       style="font-size:10.5833px;line-height:1.25;font-family:Lobster;-inkscape-font-specification:Lobster;stroke-width:0.264583"
       xml:space="preserve"><tspan
         style="font-size:7.05556px;stroke-width:0.264583"
         y="44.979164"
         x="14.741071"
         id="tspan1445"
         sodipodi:role="line">Javascript</tspan><tspan
         id="tspan1449"
         style="font-size:7.05556px;stroke-width:0.264583"
         y="58.20829"
         x="14.741071"
         sodipodi:role="line">power ❤</tspan></text>
    <path
       d="m 45.860152,31.50131 c 0.317751,0.668022 0.391914,1.391073 0.366294,2.120386 -0.119319,1.102966 -0.609703,2.098538 -1.090596,3.080989 0,0 0.627131,-0.284459 0.627131,-0.284459 v 0 c 0.483251,-0.993095 0.972076,-1.999425 1.090282,-3.113355 0.02215,-0.74558 -0.05181,-1.476494 -0.351589,-2.168834 0,0 -0.641522,0.365273 -0.641522,0.365273 z"
       id="path1455"
       style="font-variation-settings:normal;opacity:1;vector-effect:none;fill:#ffffff;fill-opacity:1;stroke:#000000;stroke-width:0.264583;stroke-linecap:butt;stroke-linejoin:miter;stroke-miterlimit:4;stroke-dasharray:none;stroke-dashoffset:0;stroke-opacity:1;stop-color:#000000;stop-opacity:1" />
    <path
       d="m 47.835073,67.632415 c -0.01206,-0.298111 0.01728,-0.596746 0.02886,-0.894786 0.0096,-0.307795 0.01667,-0.615731 0.0182,-0.923679 0.0024,-0.243666 0.0098,-0.486439 -0.01834,-0.728792 -0.0093,-0.124341 -0.03699,-0.244325 -0.06945,-0.36416 0,0 -0.229989,0.124825 -0.229989,0.124825 v 0 c 0.03106,0.118769 0.05823,0.237779 0.06756,0.360683 0.02477,0.24107 0.0186,0.483013 0.019,0.725107 -0.0016,0.30685 -7.93e-4,0.613788 -0.01389,0.920437 -0.01347,0.302411 -0.03733,0.604354 -0.04442,0.906966 0,0 0.242462,-0.126601 0.242462,-0.126601 z"
       id="path1465"
       style="font-variation-settings:normal;opacity:1;vector-effect:none;fill:#ffffff;fill-opacity:1;stroke:#000000;stroke-width:0.264583;stroke-linecap:butt;stroke-linejoin:miter;stroke-miterlimit:4;stroke-dasharray:none;stroke-dashoffset:0;stroke-opacity:1;stop-color:#000000;stop-opacity:1" />
  </g>
</svg>
