<?xml version="1.0" encoding="utf-8"?>
<!-- Generator: Adobe Illustrator 16.0.4, SVG Export Plug-In . SVG Version: 6.00 Build 0)  -->
<!DOCTYPE svg PUBLIC "-//W3C//DTD SVG 1.1//EN" "http://www.w3.org/Graphics/SVG/1.1/DTD/svg11.dtd">
<svg version="1.1" id="Layer_1" xmlns="http://www.w3.org/2000/svg" xmlns:xlink="http://www.w3.org/1999/xlink" x="0px" y="0px"
	  viewBox="0 0 600 600" enable-background="new 0 0 600 600" xml:space="preserve">
<path fill="#C6C6C6" d="M560.913,464.946l-3.047-6.577c-9.178-21.588-121.651-54.621-130.941-55.179l-7.506,0.595
	c-15.345,3.121-32.179,17.649-67.701,49.047c-39.979-18.43-94.675-67.774-120.462-96.831
	c-27.905-31.454-62.721-84.383-75.243-123.919c40.426-35.838,57.296-51.407,58.374-68.723
	c0.557-9.308-18.728-124.866-39.053-136.571l-6.131-3.846c-12.893-8.342-32.475-20.956-54.174-16.516
	c-5.276,1.096-10.404,3.158-15.16,6.131c-14.64,9.177-50.311,33.961-66.585,66.325C23.25,99.06,18.717,283.081,156.57,438.564
	c136.292,153.792,304.316,160.481,329.583,155.316l0.67-0.149l2.229-0.632c34.074-12.224,62.981-44.699,73.869-58.112
	C582.911,510.203,568.643,480.774,560.913,464.946z"/>
</svg>
