<?xml version="1.0" encoding="utf-8"?>
<!-- Generator: Adobe Illustrator 24.1.2, SVG Export Plug-In . SVG Version: 6.00 Build 0)  -->
<svg version="1.1" id="Calque_1" xmlns="http://www.w3.org/2000/svg" xmlns:xlink="http://www.w3.org/1999/xlink" x="0px" y="0px"
	 viewBox="0 0 1366 768" style="enable-background:new 0 0 1366 768;" xml:space="preserve">
<style type="text/css">
	.st0{fill:#FCFCFC;}
</style>
<g>
	<path class="st0" d="M70.3,16.5h194c32.6,0,56.6,8.5,73.6,24.1s25.5,35.4,25.5,59.5c0,19.8-5.7,36.8-18.4,51
		c-8.5,9.9-19.8,17-35.4,22.7c24.1,5.7,41.1,15.6,52.4,29.7c11.3,14.2,17,31.2,17,52.4c0,17-4.2,32.6-12.7,46.7
		c-8.5,14.2-18.4,25.5-32.6,32.6c-8.5,5.7-21.2,8.5-39.6,11.3c-22.7,2.8-38.2,4.2-46.7,4.2h-177V16.5z M175,148.2h45.3
		c15.6,0,26.9-2.8,34-8.5c5.7-5.7,9.9-14.2,9.9-24.1s-2.8-17-9.9-22.7c-7.1-5.7-17-8.5-32.6-8.5h-45.3v63.7H175z M175,279.9h52.4
		c18.4,0,29.7-2.8,38.2-9.9s11.3-14.2,11.3-25.5c0-9.9-4.2-18.4-11.3-24.1s-19.8-8.5-38.2-8.5H175V279.9z"/>
	<path class="st0" d="M724.4,295.5H608.3l-17,55.2H485.1l126-334.2h113.3l126,334.2H742.8L724.4,295.5z M703.2,223.3l-36.8-120.4
		l-36.8,120.4H703.2z"/>
	<path class="st0" d="M976.5,16.5h103.4v117.5h113.3V16.5h103.4v334.2h-103.4V214.8h-113.3v135.9H976.5V16.5z"/>
	<path d="M49,741.5l39.6-233.6h123.2l-4.2,26.9h-97.7l-12.7,75h99.1l-4.2,26.9H92.9L74.5,742.9H49V741.5z"/>
	<path d="M337.9,741.5L366.2,573h24.1L362,741.5H337.9z M371.9,541.9l5.7-32.6h24.1l-5.7,32.6H371.9z"/>
	<path d="M526.2,741.5l39.6-233.6h24.1l-39.6,233.6H526.2z"/>
	<path d="M717.4,741.5L745.7,573h24.1l-4.2,28.3c9.9-12.7,17-21.2,24.1-25.5c7.1-4.2,14.2-7.1,22.7-7.1s15.6,2.8,21.2,8.5
		s9.9,12.7,11.3,24.1c7.1-9.9,14.2-18.4,22.7-24.1c8.5-5.7,15.6-8.5,24.1-8.5c11.3,0,19.8,2.8,25.5,9.9c5.7,7.1,8.5,15.6,8.5,28.3
		c0,5.7-1.4,14.2-2.8,25.5l-19.8,109h-24.1l19.8-111.9c1.4-8.5,2.8-15.6,2.8-19.8c0-5.7-1.4-9.9-4.2-12.7c-2.8-2.8-7.1-4.2-11.3-4.2
		c-7.1,0-14.2,2.8-21.2,7.1c-7.1,4.2-12.7,11.3-17,19.8c-4.2,8.5-8.5,21.2-11.3,39.6l-14.2,82.1h-24.1l19.8-114.7
		c1.4-7.1,2.8-12.7,2.8-17c0-5.7-1.4-9.9-4.2-12.7s-7.1-4.2-11.3-4.2c-9.9,0-21.2,5.7-29.7,15.6c-9.9,11.3-17,28.3-21.2,53.8
		L740,741.5L717.4,741.5L717.4,741.5z"/>
	<path d="M1071.3,684.9l24.1-1.4c0,14.2,2.8,24.1,8.5,31.2c5.7,7.1,14.2,9.9,25.5,9.9c9.9,0,17-2.8,22.7-7.1
		c5.7-4.2,8.5-11.3,8.5-18.4c0-5.7-1.4-9.9-5.7-14.2c-4.2-4.2-11.3-9.9-24.1-15.6c-14.2-7.1-22.7-12.7-26.9-17
		c-4.2-4.2-8.5-8.5-9.9-14.2c-2.8-5.7-4.2-11.3-4.2-18.4c0-14.2,4.2-25.5,14.2-35.4c9.9-9.9,21.2-14.2,35.4-14.2
		c17,0,29.7,4.2,39.6,14.2c9.9,9.9,14.2,22.7,15.6,39.6l-22.7,1.4c0-9.9-2.8-18.4-8.5-24.1c-5.7-5.7-14.2-8.5-22.7-8.5
		c-7.1,0-14.2,2.8-18.4,7.1c-4.2,4.2-7.1,9.9-7.1,14.2c0,4.2,1.4,8.5,4.2,12.7c2.8,4.2,9.9,8.5,21.2,14.2c18.4,9.9,29.7,17,34,22.7
		c7.1,8.5,11.3,19.8,11.3,32.6c0,14.2-4.2,25.5-14.2,36.8c-9.9,9.9-24.1,15.6-41.1,15.6s-31.2-5.7-41.1-15.6
		c-9.9-9.9-15.6-24.1-15.6-42.5v-5.7H1071.3z"/>
</g>
</svg>
